<?xml version="1.0" encoding="utf-8"?>
<!-- Generator: Adobe Illustrator 24.0.2, SVG Export Plug-In . SVG Version: 6.00 Build 0)  -->
<svg version="1.1" id="Layer_1" xmlns="http://www.w3.org/2000/svg" xmlns:xlink="http://www.w3.org/1999/xlink" x="0px" y="0px"
	 viewBox="0 0 512 512" style="enable-background:new 0 0 512 512;" xml:space="preserve">
<style type="text/css">
	.st0{fill:#ED4F44;}
</style>
<path class="st0" d="M506.3,270.4c0.4-0.5,0.8-0.9,1.2-1.4c0.6-0.8,1-1.7,1.5-2.6c0.2-0.5,0.5-0.9,0.8-1.4c0.5-1.1,0.8-2.2,1.1-3.3
	c0.1-0.4,0.3-0.7,0.3-1.1c0.3-1.5,0.5-3.1,0.5-4.8c0-1.6-0.2-3.2-0.5-4.7c-0.1-0.4-0.2-0.7-0.3-1.1c-0.3-1.1-0.6-2.3-1.1-3.3
	c-0.2-0.5-0.5-0.9-0.8-1.4c-0.5-0.9-0.9-1.8-1.5-2.6c-0.4-0.5-0.8-0.9-1.2-1.4c-0.6-0.7-1.2-1.4-1.9-2c-0.2-0.2-0.3-0.4-0.5-0.5
	L327.3,84.2c-9.5-8.3-23.9-7.3-32.2,2.2c-8.3,9.5-7.3,23.9,2.2,32.2l131,114.5H24.4c-12.6,0-22.8,10.2-22.8,22.8
	c0,12.6,10.2,22.8,22.8,22.8h403.8l-131,114.5c-9.5,8.3-10.4,22.7-2.2,32.2c4.5,5.1,10.8,7.8,17.2,7.8c5.3,0,10.7-1.9,15-5.6
	L503.9,273c0.2-0.2,0.3-0.3,0.5-0.5C505.1,271.8,505.7,271.1,506.3,270.4z"/>
</svg>
